<svg xmlns="http://www.w3.org/2000/svg" id="Capa_2" data-name="Capa 2" viewBox="0 0 33.41 24.1"><defs><style>      .cls-1 {        fill: #415364;      }    </style></defs><g id="Capa_1-2" data-name="Capa 1"><g><path class="cls-1" d="m14.99,19.12c.96.21,1.78,1.06,1.89,2.09.26,1.45-.99,2.9-2.4,2.88-1.35.04-2.53-1.26-2.44-2.65.04-1.47,1.54-2.71,2.94-2.32Z"></path><path class="cls-1" d="m29.27,15.39h-15.74c-.52.04-1.12-.19-1.24-.79-1.03-3.92-1.99-7.85-3-11.77-.28-.72.32-1.57,1.07-1.47,7.42.02,14.82-.04,22.24.04.69.06.96.93.73,1.53-.96,3.85-1.87,7.73-2.85,11.58-.09.6-.67.93-1.22.89Zm-10.04-2.15c1.29,0,2.59,0,3.88-.02.13-.52.15-1.06.13-1.61-1.33,0-2.7-.02-4.03.02-.22.46-.02,1.08.02,1.6Zm-.28-3.89c1.46.23,2.98.14,4.46.06.08-.58.11-1.18.09-1.78-1.54-.02-3.11-.14-4.65.06,0,.56.02,1.12.09,1.66Zm-2.46-5.88c-1.61-.04-3.24-.04-4.87,0,.11.68.26,1.35.51,2.01,1.46.04,2.94.02,4.4,0,.21-.62,0-1.35-.04-2.01Zm.26,4.16c-1.35-.08-2.72-.02-4.08-.02.15.6.13,1.37.54,1.82,1.2.08,2.42.04,3.62.04.06-.62.02-1.22-.08-1.84Zm.28,4c-1.14-.04-2.27-.02-3.39,0,.11.52.23,1.04.41,1.57.99.08,2,.04,3.02.04.04-.54.02-1.08-.04-1.6Zm6.73-8.18c-1.72,0-3.45-.02-5.17.02,0,.66.06,1.33.11,1.99,1.65.06,3.28.04,4.93.02.13-.66.17-1.35.13-2.03Zm1.48,9.76c1.14.02,2.29.04,3.43,0,.19-.52.32-1.06.39-1.61-1.24,0-2.45-.02-3.69.02-.11.52-.15,1.06-.13,1.59Zm.26-3.77c1.37.02,2.74.1,4.1-.04.21-.58.34-1.18.43-1.78-1.48-.02-2.96-.12-4.42.04-.09.6-.13,1.18-.11,1.78Zm5.55-5.99c-1.74.02-3.47-.06-5.19.06-.06.66-.11,1.31-.09,1.99,1.59,0,3.19.02,4.78-.02.24-.64.39-1.33.51-2.03Z"></path><path class="cls-1" d="m27.33,19.2c1.16.39,1.95,1.76,1.61,2.98-.28,1.26-1.59,2.15-2.81,1.88-1.31-.23-2.27-1.7-1.93-3.04.26-1.39,1.84-2.34,3.13-1.82Z"></path><path class="cls-1" d="m11.13,18.39c-.6.08-1.14-.37-1.25-.97-1.35-5.1-2.68-10.19-4.07-15.27-1.71-.15-3.45.08-5.15-.12C-.3,1.74-.17.12.82.02,2.75-.02,4.68,0,6.61.02c.45-.04.84.31.96.73,1.42,5.14,2.68,10.34,4.14,15.47,6.41.08,12.82-.02,19.23.04,1.29.02,1.24,2.15-.04,2.11-6.6.04-13.17,0-19.77.02Z"></path></g></g></svg>